<svg width="143" height="24" viewBox="0 0 143 24" fill="none" xmlns="http://www.w3.org/2000/svg">
<path fill-rule="evenodd" clip-rule="evenodd" d="M18.5 8C19.3284 8 20 8.67157 20 9.5C20 10.3284 19.3284 11 18.5 11H10C9.17157 11 8.5 10.3284 8.5 9.5C8.5 8.67157 9.17157 8 10 8H18.5ZM4 9.5C4 10.3284 4.67157 11 5.5 11C6.32843 11 7 10.3284 7 9.5C7 8.67157 6.32843 8 5.5 8C4.67157 8 4 8.67157 4 9.5Z" fill="url(#paint0_linear_0_667)"/>
<path fill-rule="evenodd" clip-rule="evenodd" d="M5.5 13C4.67157 13 4 13.6716 4 14.5C4 15.3284 4.67157 16 5.5 16H14.5C15.3284 16 16 15.3284 16 14.5C16 13.6716 15.3284 13 14.5 13H5.5ZM20 14.5C20 15.3284 19.3284 16 18.5 16C17.6716 16 17 15.3284 17 14.5C17 13.6716 17.6716 13 18.5 13C19.3284 13 20 13.6716 20 14.5Z" fill="url(#paint1_linear_0_667)"/>
<path fill-rule="evenodd" clip-rule="evenodd" d="M34.016 14.656C34.96 14.656 35.664 14.128 35.84 13.312H37.728C37.616 14.192 37.2 14.928 36.512 15.488C35.824 16.048 34.992 16.32 34.016 16.32C32.88 16.32 31.92 15.936 31.152 15.184C30.384 14.432 30 13.488 30 12.368C30 11.232 30.384 10.288 31.152 9.536C31.92 8.784 32.88 8.4 34.016 8.4C34.976 8.4 35.808 8.688 36.496 9.248C37.2 9.808 37.616 10.528 37.728 11.408H35.84C35.664 10.592 34.96 10.08 34.016 10.08C32.736 10.08 31.84 11.072 31.84 12.368C31.84 13.664 32.736 14.656 34.016 14.656ZM41.232 8.576V9.536C41.952 8.8 42.864 8.432 43.984 8.432V10.176C42.8 10.224 41.888 10.64 41.232 11.44V16.144H39.376V8.576H41.232ZM52.832 8.576V16.144H50.992V15.616C50.336 16.08 49.568 16.32 48.672 16.32C47.616 16.32 46.72 15.936 45.968 15.168C45.232 14.4 44.864 13.472 44.864 12.368C44.864 11.264 45.232 10.336 45.968 9.568C46.72 8.784 47.616 8.4 48.672 8.4C49.568 8.4 50.336 8.64 50.992 9.104V8.576H52.832ZM48.944 14.72C49.824 14.72 50.512 14.368 50.992 13.648V11.072C50.512 10.352 49.824 10 48.944 10C48.304 10 47.776 10.24 47.344 10.704C46.912 11.168 46.704 11.728 46.704 12.368C46.704 13.008 46.912 13.568 47.344 14.032C47.776 14.496 48.304 14.72 48.944 14.72ZM57.968 8.576H60.928V10.128H57.968V16.144H56.112V10.128H54V8.576H56.112V7.232C56.112 6.256 56.4 5.488 56.96 4.896C57.52 4.304 58.272 4 59.184 4C59.776 4 60.352 4.08 60.944 4.24L60.672 5.84C60.208 5.744 59.84 5.696 59.552 5.696C58.592 5.696 57.968 6.288 57.968 7.232V8.576ZM66.704 14.48L66.96 16.064C66.256 16.272 65.632 16.384 65.072 16.384C63.264 16.384 62.144 15.168 62.144 13.232V10.128H60.416V8.576H62.144V5.808H63.984V8.576H66.784V10.128H63.984V13.232C63.984 14.192 64.464 14.672 65.424 14.672C65.824 14.672 66.24 14.608 66.704 14.48ZM68.448 5.84C68.448 5.2 68.96 4.704 69.6 4.704C70.24 4.704 70.752 5.2 70.752 5.84C70.752 6.464 70.24 6.944 69.6 6.944C68.96 6.944 68.448 6.464 68.448 5.84ZM70.528 8.576V16.144H68.688V8.576H70.528ZM77.008 8.336C78 8.336 78.8 8.672 79.408 9.328C80.016 9.984 80.32 10.864 80.32 11.968V16.144H78.48V12.08C78.48 10.752 77.776 10.016 76.624 10.016C75.92 10.016 75.264 10.384 74.672 11.104V16.144H72.816V8.576H74.672V9.2C75.36 8.624 76.144 8.336 77.008 8.336ZM89.792 8.576V16.144C89.792 17.312 89.44 18.208 88.72 18.896C88.016 19.568 87.088 19.92 85.952 19.92C84.88 19.92 83.984 19.632 83.264 19.04C82.544 18.448 82.128 17.696 82.048 16.784H83.92C84.048 17.664 84.816 18.24 85.952 18.24C87.152 18.24 87.952 17.472 87.952 16.144V15.2C87.296 15.664 86.528 15.904 85.616 15.904C84.576 15.904 83.68 15.536 82.928 14.784C82.192 14.032 81.824 13.168 81.824 12.16C81.824 11.04 82.192 10.112 82.912 9.392C83.648 8.656 84.544 8.288 85.616 8.288C86.528 8.288 87.296 8.528 87.952 8.992V8.576H89.792ZM85.888 14.304C86.784 14.304 87.472 13.952 87.952 13.232V10.96C87.456 10.24 86.768 9.872 85.888 9.872C85.232 9.872 84.704 10.096 84.288 10.528C83.872 10.96 83.664 11.504 83.664 12.16C83.664 12.704 83.872 13.2 84.304 13.648C84.736 14.08 85.264 14.304 85.888 14.304ZM99.232 12.24C99.232 12.608 99.216 12.896 99.184 13.088H93.376C93.616 14.096 94.368 14.752 95.584 14.752C96.336 14.752 96.848 14.512 97.12 14.048H99.088C98.656 15.44 97.264 16.32 95.536 16.32C94.336 16.32 93.376 15.952 92.624 15.2C91.888 14.448 91.52 13.504 91.52 12.368C91.52 11.232 91.888 10.288 92.624 9.536C93.376 8.784 94.336 8.4 95.536 8.4C96.592 8.4 97.472 8.752 98.16 9.472C98.864 10.192 99.216 11.104 99.232 12.24ZM95.44 9.968C94.304 9.968 93.568 10.672 93.36 11.712H97.36C97.216 10.624 96.528 9.968 95.44 9.968ZM110.08 8.336C111.024 8.336 111.808 8.672 112.432 9.344C113.056 10.016 113.376 10.896 113.376 11.968V16.144H111.52V12.08C111.52 10.752 110.864 10.016 109.696 10.016C109.008 10.016 108.432 10.368 107.952 11.056C108.016 11.344 108.048 11.648 108.048 11.968V16.144H106.208V12.08C106.208 10.752 105.536 10.016 104.384 10.016C103.776 10.016 103.232 10.352 102.736 11.024V16.144H100.88V8.576H102.736V9.104C103.28 8.592 103.952 8.336 104.768 8.336C105.792 8.336 106.608 8.72 107.232 9.488C108.032 8.72 108.976 8.336 110.08 8.336ZM122.976 8.576V16.144H121.136V15.616C120.48 16.08 119.712 16.32 118.816 16.32C117.76 16.32 116.864 15.936 116.112 15.168C115.376 14.4 115.008 13.472 115.008 12.368C115.008 11.264 115.376 10.336 116.112 9.568C116.864 8.784 117.76 8.4 118.816 8.4C119.712 8.4 120.48 8.64 121.136 9.104V8.576H122.976ZM119.088 14.72C119.968 14.72 120.656 14.368 121.136 13.648V11.072C120.656 10.352 119.968 10 119.088 10C118.448 10 117.92 10.24 117.488 10.704C117.056 11.168 116.848 11.728 116.848 12.368C116.848 13.008 117.056 13.568 117.488 14.032C117.92 14.496 118.448 14.72 119.088 14.72ZM125.04 5.84C125.04 5.2 125.552 4.704 126.192 4.704C126.832 4.704 127.344 5.2 127.344 5.84C127.344 6.464 126.832 6.944 126.192 6.944C125.552 6.944 125.04 6.464 125.04 5.84ZM127.12 8.576V16.144H125.28V8.576H127.12ZM131.264 4.784V16.144H129.408V4.784H131.264ZM132.928 13.584L134.624 13.6C134.768 14.448 135.392 14.88 136.48 14.88C137.376 14.88 138 14.56 138 14.048C138 13.632 137.696 13.344 137.088 13.248L135.44 12.976C133.952 12.736 133.2 11.984 133.2 10.8C133.2 9.312 134.464 8.368 136.384 8.368C137.104 8.368 137.776 8.512 138.464 8.848C139.152 9.184 139.648 9.904 139.728 10.88L138.016 10.896C137.952 10.176 137.296 9.792 136.384 9.792C135.536 9.792 135.024 10.144 135.024 10.608C135.024 11.056 135.376 11.36 136.096 11.472L137.504 11.696C139.008 11.936 139.76 12.688 139.76 13.888C139.76 15.472 138.4 16.384 136.432 16.384C134.512 16.384 133.104 15.52 132.928 13.584Z" fill="#4A5566"/>
<defs>
<linearGradient id="paint0_linear_0_667" x1="2.99056" y1="8.45716" x2="21.0094" y2="8.45716" gradientUnits="userSpaceOnUse">
<stop stop-color="#FA709A"/>
<stop offset="1" stop-color="#FEE140"/>
</linearGradient>
<linearGradient id="paint1_linear_0_667" x1="21.0094" y1="13.4572" x2="2.99056" y2="13.4572" gradientUnits="userSpaceOnUse">
<stop stop-color="#FD87FF"/>
<stop offset="1" stop-color="#21CFFF"/>
</linearGradient>
</defs>
</svg>
